<svg enable-background="new 0 0 59.36 60" height="512" viewBox="0 0 59.36 60" width="512" xmlns="http://www.w3.org/2000/svg"><path d="m46.13 1h-41.13c-2.11 0-3.82 1.71-3.82 3.83v36.34c0 2.12 1.71 3.83 3.82 3.83h9.896 13.464 15.817c3.194 0 5.783-2.589 5.783-5.783v-24.337-1.456-8.594c0-2.12-1.71-3.83-3.83-3.83z" fill="#a2c5d3"></path><path d="m56.26 14.88h-25.8c-.19 0-.36.02-.53.08-.05.01-.1.02-.15.04-.61.2-1.1.69-1.3 1.3-.08.21-.12.44-.12.68v39.92c0 1.16.94 2.1 2.1 2.1h25.8c1.16 0 2.1-.94 2.1-2.1v-39.92c0-1.16-.94-2.1-2.1-2.1zm-1.72 15.48c0 .91-.73 1.64-1.64 1.64h-18.72c-.91 0-1.64-.73-1.64-1.64v-9.72c0-.91.73-1.64 1.64-1.64h18.72c.91 0 1.64.73 1.64 1.64z" fill="#263d66"></path><path d="m54.54 20.64v9.72c0 .91-.73 1.64-1.64 1.64h-18.72c-.91 0-1.64-.73-1.64-1.64v-9.72c0-.91.73-1.64 1.64-1.64h18.72c.91 0 1.64.73 1.64 1.64z" fill="#263d66"></path><path d="m29.93 14.96c-.05.01-.1.02-.15.04-.61.2-1.1.69-1.3 1.3h-8.94c.7-2.37 2.89-4.1 5.5-4.1.29 0 .57.02.84.07 1.73.25 3.2 1.26 4.05 2.69z" fill="#f7d300"></path><path d="m37.39 14.88h-6.93c-.19 0-.36.02-.53.08-.85-1.43-2.32-2.44-4.05-2.69-.27-.05-.55-.07-.84-.07-2.61 0-4.8 1.73-5.5 4.1h-4.36c-.91 0-1.57-.83-1.4-1.71 1.05-5.56 5.93-9.76 11.79-9.76s10.74 4.2 11.79 9.76c.02.1.03.19.03.29z" fill="#f4edea"></path><path d="m33.04 51h5v5h-5z" fill="#a2c5d3"></path><path d="m33.04 43h5v5h-5z" fill="#a2c5d3"></path><path d="m33.04 35h5v5h-5z" fill="#a2c5d3"></path><path d="m41.04 35h5v5h-5z" fill="#a2c5d3"></path><path d="m41.04 43h5v5h-5z" fill="#a2c5d3"></path><path d="m41.04 51h5v5h-5z" fill="#a2c5d3"></path><path d="m49.04 51h5v5h-5z" fill="#a2c5d3"></path><path d="m49.04 43h5v5h-5z" fill="#a2c5d3"></path><path d="m49.04 35h5v5h-5z" fill="#a2c5d3"></path><path d="m52.9 19h-18.72c-.91 0-1.64.73-1.64 1.64v9.72c0 .91.73 1.64 1.64 1.64h18.72c.91 0 1.64-.73 1.64-1.64v-9.72c0-.91-.73-1.64-1.64-1.64z" fill="#f4edea"></path><g fill="#3a0e33"><path d="m56.26 13.88h-5.48v-9.05c0-2.663-2.167-4.83-4.83-4.83h-41.13c-2.658 0-4.82 2.167-4.82 4.83v36.34c0 2.663 2.162 4.83 4.82 4.83h22.54v10.9c0 1.709 1.391 3.1 3.1 3.1h25.8c1.709 0 3.1-1.391 3.1-3.1v-39.92c0-1.709-1.391-3.1-3.1-3.1zm-51.44 30.12c-1.555 0-2.82-1.27-2.82-2.83v-36.34c0-1.56 1.265-2.83 2.82-2.83h41.13c1.561 0 2.83 1.27 2.83 2.83v9.05h-10.741c-1.358-5.852-6.586-10.05-12.649-10.05-6.244 0-11.615 4.447-12.772 10.57-.139.72.047 1.456.513 2.021.461.558 1.142.879 1.869.879h4.357.003.003 7.997v26.7zm25.639-30.12c-.072 0-.14.016-.211.021-.918-1.243-2.232-2.116-3.726-2.486l-.649-2.609.8.379c.138.066.284.096.427.096.375 0 .733-.211.904-.572.236-.499.023-1.095-.476-1.332l-2.704-1.28-.004-.002c-.004-.002-.008-.001-.012-.003-.084-.039-.173-.068-.268-.082-.021-.003-.042.002-.063 0-.038-.003-.074-.001-.112 0-.085.002-.167.015-.247.038-.033.009-.064.016-.096.029-.103.043-.202.098-.288.173-.002.002-.005.003-.007.005-.073.066-.138.142-.19.229l-1.614 2.682c-.285.473-.132 1.087.341 1.373s1.087.133 1.373-.341l.369-.614.411 1.653c-2.524.17-4.751 1.756-5.738 4.063h-3.679c-.166 0-.269-.082-.326-.152-.049-.06-.127-.188-.091-.372.979-5.184 5.523-8.946 10.807-8.946 4.971 0 9.286 3.331 10.596 8.05zm-5.032 1.42h-4.501c.854-1.28 2.301-2.082 3.98-2.096zm2.435 0h-.374l-.381-1.531c.463.247.879.572 1.234.962-.181.17-.343.359-.479.569zm29.498 41.6c0 .606-.493 1.1-1.1 1.1h-25.801c-.606 0-1.1-.493-1.1-1.1v-39.92c0-.41.236-.755.57-.944.136-.017.259-.058.372-.124.054-.008.102-.032.158-.032h25.801c.606 0 1.1.493 1.1 1.1z"></path><path d="m52.721 18h-18.722c-1.455 0-2.639 1.184-2.639 2.639v9.723c0 1.455 1.184 2.639 2.639 2.639h18.723c1.455 0 2.639-1.184 2.639-2.639v-9.723c-.001-1.455-1.185-2.639-2.64-2.639zm.639 12.361c0 .352-.287.639-.639.639h-18.722c-.352 0-.639-.287-.639-.639v-9.723c0-.352.287-.639.639-.639h18.723c.352 0 .639.287.639.639v9.723z"></path><path d="m37.86 34h-5c-.552 0-1 .447-1 1v5c0 .553.448 1 1 1h5c.552 0 1-.447 1-1v-5c0-.553-.448-1-1-1zm-1 5h-3v-3h3z"></path><path d="m45.86 34h-5c-.552 0-1 .447-1 1v5c0 .553.448 1 1 1h5c.552 0 1-.447 1-1v-5c0-.553-.448-1-1-1zm-1 5h-3v-3h3z"></path><path d="m53.86 34h-5c-.552 0-1 .447-1 1v5c0 .553.448 1 1 1h5c.552 0 1-.447 1-1v-5c0-.553-.448-1-1-1zm-1 5h-3v-3h3z"></path><path d="m37.86 42h-5c-.552 0-1 .447-1 1v5c0 .553.448 1 1 1h5c.552 0 1-.447 1-1v-5c0-.553-.448-1-1-1zm-1 5h-3v-3h3z"></path><path d="m45.86 42h-5c-.552 0-1 .447-1 1v5c0 .553.448 1 1 1h5c.552 0 1-.447 1-1v-5c0-.553-.448-1-1-1zm-1 5h-3v-3h3z"></path><path d="m53.86 42h-5c-.552 0-1 .447-1 1v5c0 .553.448 1 1 1h5c.552 0 1-.447 1-1v-5c0-.553-.448-1-1-1zm-1 5h-3v-3h3z"></path><path d="m37.86 50h-5c-.552 0-1 .447-1 1v5c0 .553.448 1 1 1h5c.552 0 1-.447 1-1v-5c0-.553-.448-1-1-1zm-1 5h-3v-3h3z"></path><path d="m45.86 50h-5c-.552 0-1 .447-1 1v5c0 .553.448 1 1 1h5c.552 0 1-.447 1-1v-5c0-.553-.448-1-1-1zm-1 5h-3v-3h3z"></path><path d="m53.86 50h-5c-.552 0-1 .447-1 1v5c0 .553.448 1 1 1h5c.552 0 1-.447 1-1v-5c0-.553-.448-1-1-1zm-1 5h-3v-3h3z"></path><path d="m37.61 21h-2c-.552 0-1 .448-1 1v3.5 3.5c0 .552.448 1 1 1h2c1.378 0 2.5-1.122 2.5-2.5v-.5c0-.565-.196-1.081-.513-1.5.317-.419.513-.935.513-1.5v-.5c0-1.378-1.122-2.5-2.5-2.5zm-1 2h1c.276 0 .5.224.5.5v.5c0 .276-.224.5-.5.5h-1zm1.5 4.5c0 .276-.224.5-.5.5h-1v-1.5h1c.276 0 .5.224.5.5z"></path><path d="m48.176 21.051c-.407-.135-.858.005-1.116.349l-2.2 2.934-2.2-2.934c-.258-.344-.708-.485-1.116-.349-.409.137-.684.518-.684.949v8h2v-5l1.2 1.6c.377.504 1.223.504 1.6 0l1.2-1.6v5h2v-8c0-.431-.276-.812-.684-.949z"></path><path d="m49.86 21h2v9h-2z"></path></g></svg>